<svg width="100" height="101" fill="none" xmlns="http://www.w3.org/2000/svg"><rect x="1" y="1.5" width="98" height="98" rx="23" fill="#fff"/><path fill-rule="evenodd" clip-rule="evenodd" d="M60.049 19.457c.245.116.486.238.726.363h.002C66.927 22.747 71 28.34 71 34.893c0 8.264-5.14 12.75-10.11 17.09l-.004.002c-2.42 2.112-4.709 4.11-6.39 6.501-1.72 2.448-1.87 3.608-1.87 8.433v1.09H45.21l-3.635-1.819v-5.285c0-6.365 3.691-10.528 7.261-14.554l.006-.006c3.755-4.232 7.3-8.23 7.3-14.81 0-3.143-1.005-5.58-2.88-7.185-1.045-.267-2.202-.405-3.467-.405-2.718 0-4.923.834-6.539 1.769 1.723 1.324 2.624 3.172 2.624 5.426 0 3.693-2.95 6.478-6.862 6.478a6.315 6.315 0 01-3.209-.851 6.3 6.3 0 01-.726-.363 6.015 6.015 0 01-.726-.363 6.301 6.301 0 01-.727-.364 6.308 6.308 0 01-.726-.363 6.06 6.06 0 01-2.014-1.37C29.654 32.668 29 30.903 29 28.84c0-3.323 1.889-6.635 5.182-9.087 3.412-2.538 8.019-3.936 12.97-3.936 3.965 0 7.63.93 10.718 2.55.245.115.486.237.726.362.245.116.487.238.726.363.246.117.487.238.727.364zM49.194 71.082c.254.11 2.676 1.32 2.907 1.455h.002c2.555 1.078 3.878 3.62 3.878 6.141a6.65 6.65 0 01-1.661 4.347c-.873.984-2.451 2.157-5.02 2.157-1.468 0-2.612-.383-3.485-.895-.26-.11-2.684-1.324-2.907-1.454a6.256 6.256 0 01-2.261-1.626 6.648 6.648 0 01-1.66-4.347c0-1.676.603-3.326 1.656-4.528.86-.983 2.43-2.152 5.023-2.152 1.387 0 2.566.338 3.528.902zm-9.12 5.778c0-2.707 1.835-5.59 5.592-5.59 3.757 0 5.59 2.883 5.59 5.59 0 2.446-1.833 5.417-5.59 5.417-3.757 0-5.591-2.97-5.591-5.417zM30.09 28.84c0-5.986 6.96-11.933 17.061-11.933 10.5 0 19.124 6.906 19.124 16.168 0 7.77-4.906 12.053-9.74 16.272-2.412 2.105-4.807 4.195-6.564 6.695-1.938 2.754-2.07 4.245-2.07 9.059h-5.237v-4.196c0-5.954 3.45-9.843 6.992-13.836 3.737-4.213 7.577-8.542 7.577-15.534 0-6.159-3.661-10.497-11.072-10.497-3.753 0-6.64 1.451-8.565 2.895 2.406 1.154 3.561 2.983 3.561 5.389 0 3.08-2.404 5.39-5.772 5.39-2.839 0-5.295-2.118-5.295-5.871z" fill="#171717"/><path d="M45.666 71.27c-3.757 0-5.591 2.883-5.591 5.59 0 2.446 1.834 5.417 5.59 5.417 3.758 0 5.592-2.97 5.592-5.417 0-2.707-1.834-5.59-5.591-5.59zm1.485-54.363c-10.101 0-17.062 5.947-17.062 11.934 0 3.753 2.457 5.87 5.296 5.87 3.368 0 5.772-2.31 5.772-5.39 0-2.405-1.155-4.234-3.56-5.389 1.924-1.443 4.811-2.894 8.564-2.894 7.41 0 11.072 4.338 11.072 10.497 0 13.62-14.569 17.134-14.569 29.37V65.1h5.237c0-4.814.132-6.305 2.07-9.06 5.279-7.508 16.304-11.317 16.304-22.966 0-9.262-8.623-16.168-19.124-16.168z" fill="#fff"/><rect x="1" y="1.5" width="98" height="98" rx="23" stroke="#171717" stroke-width="2"/></svg>
